<?xml version="1.0" encoding="UTF-8"?>
<svg width="288px" height="39px" viewBox="0 0 288 39" version="1.1" xmlns="http://www.w3.org/2000/svg" xmlns:xlink="http://www.w3.org/1999/xlink">
    <!-- Generator: Sketch 52.4 (67378) - http://www.bohemiancoding.com/sketch -->
    <title>logo_left_top_tianbao</title>
    <desc>Created with Sketch.</desc>
    <g id="前端新版" stroke="none" stroke-width="1" fill="none" fill-rule="evenodd">
        <g id="智能门禁_new-copy-2" transform="translate(-16.000000, -12.000000)" fill="#FFFFFF">
            <g id="top" transform="translate(0.000000, -1.000000)">
                <g id="logo_left_top" transform="translate(12.000000, 13.000000)">
                    <g id="分组" transform="translate(48.000000, 7.000000)" font-family="PingFangSC-Medium, PingFang SC" font-size="18" font-weight="400">
                        <g id="分组-4">
                            <text id="天科智慧运维平台">
                                <tspan x="0" y="19">天科智慧运维平台</tspan>
                            </text>
                        </g>
                    </g>
                    <g id="天科运维管理logo" transform="translate(4.000000, 0.000000)">
                        <path d="M18.1357079,38.7826856 L14.8415056,36.8901804 C14.6305618,36.7689588 14.5007191,36.5452113 14.5007191,36.3031701 L14.5007191,17.0546598 L18.1923371,15.3951495 C18.5234157,15.2465876 18.8985843,15.4870206 18.8985843,15.8480722 L18.8985843,38.3452423 C18.8985843,38.7342371 18.4746742,38.9772835 18.1357079,38.7826856" id="Fill-1"></path>
                        <path d="M18.590764,0.194396907 L16.0646966,1.64563918 C15.6159101,1.90336082 15.6159101,2.54726289 16.0646966,2.80498454 L31.6969888,11.7854381 C31.9053034,11.9052526 32.0335281,12.1259845 32.0335281,12.3652113 L32.0335281,26.7433454 C32.0335281,26.9847835 31.9030787,27.2071237 31.6919326,27.326134 L21.0106517,33.3415825 C20.7995056,33.4603918 20.6690562,33.682933 20.6690562,33.9239691 L20.6690562,37.6561082 C20.6690562,37.8647784 20.896382,37.9952474 21.0782022,37.8909124 L35.5694157,29.574866 C35.7803596,29.4538454 35.9104045,29.2300979 35.9104045,28.9876546 L35.9104045,10.1428144 C35.9104045,9.9007732 35.7805618,9.67702577 35.569618,9.55580412 L19.2733483,0.194396907 C19.0622022,0.0729742268 18.8019101,0.0729742268 18.590764,0.194396907" id="Fill-2"></path>
                        <path d="M10.7708764,34.5907887 L8.37101124,33.2123196 C8.16916854,33.0890876 8.04620225,32.870366 8.04620225,32.6349588 L8.04620225,13.1078196 L11.810427,15.431134 L11.810427,34.0132268 C11.810427,34.5435464 11.2253258,34.8684124 10.7708764,34.5907887" id="Fill-3"></path>
                        <path d="M5.21757303,7.7025 L2.60696629,9.2013866 C2.15089888,9.46312887 2.1527191,10.1178866 2.61020225,10.3772165 L17.8909888,19.038433 C18.3401798,19.2931392 18.8985843,18.9706856 18.8985843,18.4568505 L18.8985843,15.4667165 C18.8985843,15.2262835 18.7687416,15.0043454 18.558809,14.885134 L5.8967191,7.70089175 C5.68617978,7.58127835 5.42750562,7.58188144 5.21757303,7.7025" id="Fill-4"></path>
                        <path d="M21.6552135,1.5626134 L19.2699101,0.192185567 C19.060382,0.0721701031 18.8029213,0.0709639175 18.5925843,0.189371134 L8.41065169,5.92056186 C8.22701124,6.02389175 8.226,6.28663918 8.40862921,6.39137629 L11.5214157,8.17773711 C11.7329663,8.29895876 11.9936629,8.29875773 12.2050112,8.17693299 L21.6562247,2.72135567 C22.104,2.4628299 22.103191,1.81993299 21.6552135,1.5626134" id="Fill-5"></path>
                        <path d="M23.3472135,21.8603041 L27.6508315,19.1871959 L31.4605618,13.019768 C31.608809,12.7797371 31.3365843,12.5021134 31.0914607,12.6432371 L20.8049663,18.5688247 C20.7208315,18.6174742 20.6690562,18.706732 20.6690562,18.8034278 L20.6690562,24.7440928 C20.6690562,24.8112371 20.6941348,24.8759691 20.7394382,24.9258247 L28.600382,33.5651289 L32.0268539,31.5968351 L23.3472135,21.8603041" id="Fill-6"></path>
                        <path d="M4.93442697,15.6488505 L4.89377528,18.5621907 C4.89074157,18.7736753 4.65613483,18.9007268 4.47593258,18.7881495 L2.81973034,17.8810979 C2.73883146,17.8308402 2.69049438,17.7421856 2.69191011,17.6475 L2.74125843,14.2329897 C2.74469663,14.0032113 2.47692135,13.8737474 2.29732584,14.0180876 L0.238853933,15.6685515 C0.172921348,15.7212216 0.135303371,15.8018351 0.137325843,15.886067 L0.200224719,18.8492629 C0.201235955,18.9005258 0.217213483,18.9503814 0.245730337,18.993 L1.99031461,21.5951443 C2.06393258,21.7049072 2.10337079,21.833768 2.10357303,21.9656443 L2.11307865,29.2813608 C2.1132809,29.5181753 2.23806742,29.7375 2.44173034,29.8601289 L4.41364045,30.9018711 C4.86869663,31.1758763 5.4501573,30.8498041 5.44934831,30.3210928 L5.44146067,23.8692062 C5.44146067,23.7799485 5.45905618,23.6916959 5.49364045,23.6094742 L6.93364045,20.1909433 C6.94759551,20.1577732 6.9548764,20.1221907 6.9548764,20.0862062 L6.9548764,17.9112526 C6.9548764,17.8587835 6.93970787,17.8075206 6.91078652,17.7634948 L5.436,15.5049124 C5.28916854,15.2801598 4.93806742,15.3808763 4.93442697,15.6488505" id="Fill-7"></path>
                    </g>
                </g>
            </g>
        </g>
    </g>
</svg>