<?xml version="1.0" encoding="UTF-8"?>
<svg width="362px" height="184px" viewBox="0 0 362 174" version="1.1" xmlns="http://www.w3.org/2000/svg" xmlns:xlink="http://www.w3.org/1999/xlink">
    <!-- Generator: Sketch 52.4 (67378) - http://www.bohemiancoding.com/sketch -->
    <title>logo_login_tianbao</title>
    <desc>Created with Sketch.</desc>
    <g id="前端" stroke="none" stroke-width="1" fill="none" fill-rule="evenodd">
        <g id="账户密码登录-copy" transform="translate(-538.000000, -171.000000)" fill="#FFFFFF">
            <g id="分组-4" transform="translate(538.000000, 171.000000)">
                <g id="分组-3" transform="translate(33.000000, 139.000000)" font-family="PingFangSC-Medium, PingFang SC" font-size="32" font-weight="400" letter-spacing="6" line-spacing="32">
                    <text id="天科智慧运维平台">
                        <tspan x="0" y="34">天科智慧运维平</tspan>
                        <tspan x="266" y="34">台</tspan>
                    </text>
                </g>
                <g id="天科运维管理logo" transform="translate(132.000000, 3.000000)">
                    <path d="M50.3769663,108.381461 L41.2264045,103.092697 C40.6404494,102.753933 40.2797753,102.128652 40.2797753,101.452247 L40.2797753,47.6606742 L50.5342697,43.0230337 C51.4539326,42.6078652 52.4960674,43.2797753 52.4960674,44.288764 L52.4960674,107.158989 C52.4960674,108.246067 51.3185393,108.925281 50.3769663,108.381461" id="Fill-1"></path>
                    <path d="M51.6410112,0.543258427 L44.6241573,4.5988764 C43.3775281,5.31910112 43.3775281,7.11853933 44.6241573,7.83876404 L88.047191,32.9353933 C88.6258427,33.2702247 88.9820225,33.8870787 88.9820225,34.555618 L88.9820225,74.7365169 C88.9820225,75.411236 88.6196629,76.0325843 88.0331461,76.3651685 L58.3629213,93.1758427 C57.7764045,93.5078652 57.4140449,94.1297753 57.4140449,94.8033708 L57.4140449,105.233146 C57.4140449,105.816292 58.0455056,106.180899 58.5505618,105.889326 L98.8039326,82.6494382 C99.3898876,82.311236 99.7511236,81.6859551 99.7511236,81.008427 L99.7511236,28.3449438 C99.7511236,27.6685393 99.3904494,27.0432584 98.8044944,26.7044944 L53.5370787,0.543258427 C52.9505618,0.203932584 52.2275281,0.203932584 51.6410112,0.543258427" id="Fill-2"></path>
                    <path d="M29.9191011,96.6668539 L23.252809,92.8146067 C22.6921348,92.4702247 22.3505618,91.8589888 22.3505618,91.2011236 L22.3505618,36.6308989 L32.8067416,43.1235955 L32.8067416,95.052809 C32.8067416,96.5348315 31.1814607,97.4426966 29.9191011,96.6668539" id="Fill-3"></path>
                    <path d="M14.4932584,21.5252809 L7.24157303,25.7140449 C5.9747191,26.4455056 5.97977528,28.2752809 7.2505618,29 L49.697191,53.2044944 C50.9449438,53.9162921 52.4960674,53.0151685 52.4960674,51.5792135 L52.4960674,43.2230337 C52.4960674,42.5511236 52.1353933,41.9308989 51.5522472,41.5977528 L16.3797753,21.5207865 C15.7949438,21.1865169 15.0764045,21.1882022 14.4932584,21.5252809" id="Fill-4"></path>
                    <path d="M60.1533708,4.36685393 L53.5275281,0.537078652 C52.9455056,0.201685393 52.2303371,0.198314607 51.6460674,0.529213483 L23.3629213,16.5455056 C22.852809,16.8342697 22.85,17.5685393 23.3573034,17.861236 L32.0039326,22.8533708 C32.591573,23.1921348 33.3157303,23.191573 33.902809,22.8511236 L60.1561798,7.60505618 C61.4,6.88258427 61.3977528,5.08595506 60.1533708,4.36685393" id="Fill-5"></path>
                    <path d="M64.8533708,61.0904494 L76.8078652,53.6202247 L87.3904494,36.3848315 C87.8022472,35.7140449 87.0460674,34.9382022 86.3651685,35.3325843 L57.791573,51.8921348 C57.5578652,52.0280899 57.4140449,52.2775281 57.4140449,52.5477528 L57.4140449,69.1494382 C57.4140449,69.3370787 57.4837079,69.5179775 57.6095506,69.6573034 L79.4455056,93.8005618 L88.9634831,88.3 L64.8533708,61.0904494" id="Fill-6"></path>
                    <path d="M13.7067416,43.7320225 L13.5938202,51.8735955 C13.5853933,52.4646067 12.9337079,52.8196629 12.4331461,52.5050562 L7.83258427,49.9702247 C7.60786517,49.8297753 7.47359551,49.5820225 7.47752809,49.3174157 L7.61460674,39.7752809 C7.6241573,39.1331461 6.88033708,38.7713483 6.38146067,39.1747191 L0.663483146,43.7870787 C0.480337079,43.9342697 0.375842697,44.1595506 0.381460674,44.3949438 L0.556179775,52.6758427 C0.558988764,52.8191011 0.603370787,52.958427 0.68258427,53.0775281 L5.52865169,60.3494382 C5.73314607,60.6561798 5.84269663,61.0162921 5.84325843,61.3848315 L5.86966292,81.8292135 C5.87022472,82.4910112 6.21685393,83.1039326 6.78258427,83.4466292 L12.2601124,86.3578652 C13.5241573,87.1235955 15.1393258,86.2123596 15.1370787,84.7348315 L15.1151685,66.7044944 C15.1151685,66.4550562 15.1640449,66.208427 15.2601124,65.9786517 L19.2601124,56.4252809 C19.2988764,56.3325843 19.3191011,56.2331461 19.3191011,56.1325843 L19.3191011,50.0544944 C19.3191011,49.9078652 19.2769663,49.7646067 19.1966292,49.641573 L15.1,43.3297753 C14.6921348,42.7016854 13.7168539,42.9831461 13.7067416,43.7320225" id="Fill-7"></path>
                </g>
            </g>
        </g>
    </g>
</svg>
